<mxfile host="app.diagrams.net" modified="2023-03-13T08:15:45.403Z" agent="5.0 (Windows NT 10.0; Win64; x64) AppleWebKit/537.36 (KHTML, like Gecko) Chrome/93.0.4577.63 Safari/537.36 Edg/93.0.961.47" etag="8XQrS__7R9TGim_3Ox2J" version="21.0.6" type="github">
  <diagram name="第 1 页" id="aSI_KmaN6ENxHBO8ahHy">
    <mxGraphModel dx="1571" dy="827" grid="1" gridSize="10" guides="1" tooltips="1" connect="1" arrows="1" fold="1" page="1" pageScale="1" pageWidth="827" pageHeight="1169" math="0" shadow="0">
      <root>
        <mxCell id="0" />
        <mxCell id="1" parent="0" />
        <mxCell id="Hwy9qkU3soCEkyCqni0h-17" style="edgeStyle=orthogonalEdgeStyle;rounded=0;orthogonalLoop=1;jettySize=auto;html=1;" edge="1" parent="1" source="Hwy9qkU3soCEkyCqni0h-1">
          <mxGeometry relative="1" as="geometry">
            <mxPoint x="90" y="290" as="targetPoint" />
          </mxGeometry>
        </mxCell>
        <mxCell id="Hwy9qkU3soCEkyCqni0h-1" value="开始" style="rounded=1;whiteSpace=wrap;html=1;" vertex="1" parent="1">
          <mxGeometry x="30" y="210" width="120" height="50" as="geometry" />
        </mxCell>
        <mxCell id="Hwy9qkU3soCEkyCqni0h-20" style="edgeStyle=orthogonalEdgeStyle;rounded=0;orthogonalLoop=1;jettySize=auto;html=1;" edge="1" parent="1" source="Hwy9qkU3soCEkyCqni0h-18">
          <mxGeometry relative="1" as="geometry">
            <mxPoint x="90" y="390" as="targetPoint" />
          </mxGeometry>
        </mxCell>
        <mxCell id="Hwy9qkU3soCEkyCqni0h-18" value="工具栏选中基准面生成命令" style="rounded=0;whiteSpace=wrap;html=1;" vertex="1" parent="1">
          <mxGeometry x="30" y="290" width="120" height="60" as="geometry" />
        </mxCell>
        <mxCell id="Hwy9qkU3soCEkyCqni0h-22" style="edgeStyle=orthogonalEdgeStyle;rounded=0;orthogonalLoop=1;jettySize=auto;html=1;" edge="1" parent="1" source="Hwy9qkU3soCEkyCqni0h-21">
          <mxGeometry relative="1" as="geometry">
            <mxPoint x="90" y="470" as="targetPoint" />
          </mxGeometry>
        </mxCell>
        <mxCell id="Hwy9qkU3soCEkyCqni0h-21" value="在弹出的对话框中选中基准面生成方式" style="rounded=0;whiteSpace=wrap;html=1;" vertex="1" parent="1">
          <mxGeometry x="30" y="390" width="120" height="50" as="geometry" />
        </mxCell>
        <mxCell id="Hwy9qkU3soCEkyCqni0h-23" value="在视图选中参考的拓扑元素" style="rounded=0;whiteSpace=wrap;html=1;" vertex="1" parent="1">
          <mxGeometry x="30" y="470" width="120" height="60" as="geometry" />
        </mxCell>
        <mxCell id="Hwy9qkU3soCEkyCqni0h-24" value="" style="endArrow=classic;html=1;rounded=0;exitX=0.5;exitY=1;exitDx=0;exitDy=0;" edge="1" parent="1" source="Hwy9qkU3soCEkyCqni0h-23">
          <mxGeometry width="50" height="50" relative="1" as="geometry">
            <mxPoint x="140" y="610" as="sourcePoint" />
            <mxPoint x="90" y="580" as="targetPoint" />
          </mxGeometry>
        </mxCell>
        <mxCell id="Hwy9qkU3soCEkyCqni0h-25" value="修改特征偏移参数直到满足效果" style="rounded=0;whiteSpace=wrap;html=1;" vertex="1" parent="1">
          <mxGeometry x="30" y="580" width="120" height="60" as="geometry" />
        </mxCell>
        <mxCell id="Hwy9qkU3soCEkyCqni0h-26" value="" style="endArrow=classic;html=1;rounded=0;exitX=0.5;exitY=1;exitDx=0;exitDy=0;" edge="1" parent="1" source="Hwy9qkU3soCEkyCqni0h-25">
          <mxGeometry width="50" height="50" relative="1" as="geometry">
            <mxPoint x="100" y="720" as="sourcePoint" />
            <mxPoint x="90" y="690" as="targetPoint" />
          </mxGeometry>
        </mxCell>
        <mxCell id="Hwy9qkU3soCEkyCqni0h-28" value="是" style="edgeStyle=orthogonalEdgeStyle;rounded=0;orthogonalLoop=1;jettySize=auto;html=1;" edge="1" parent="1" source="Hwy9qkU3soCEkyCqni0h-27">
          <mxGeometry relative="1" as="geometry">
            <mxPoint x="170" y="730" as="targetPoint" />
          </mxGeometry>
        </mxCell>
        <mxCell id="Hwy9qkU3soCEkyCqni0h-31" value="否" style="edgeStyle=orthogonalEdgeStyle;rounded=0;orthogonalLoop=1;jettySize=auto;html=1;entryX=0.5;entryY=0;entryDx=0;entryDy=0;" edge="1" parent="1" source="Hwy9qkU3soCEkyCqni0h-27" target="Hwy9qkU3soCEkyCqni0h-32">
          <mxGeometry relative="1" as="geometry">
            <mxPoint x="90" y="800" as="targetPoint" />
          </mxGeometry>
        </mxCell>
        <mxCell id="Hwy9qkU3soCEkyCqni0h-27" value="是否确定生成" style="rhombus;whiteSpace=wrap;html=1;" vertex="1" parent="1">
          <mxGeometry x="50" y="690" width="80" height="80" as="geometry" />
        </mxCell>
        <mxCell id="Hwy9qkU3soCEkyCqni0h-33" style="edgeStyle=orthogonalEdgeStyle;rounded=0;orthogonalLoop=1;jettySize=auto;html=1;entryX=1;entryY=0.5;entryDx=0;entryDy=0;" edge="1" parent="1" source="Hwy9qkU3soCEkyCqni0h-29" target="Hwy9qkU3soCEkyCqni0h-32">
          <mxGeometry relative="1" as="geometry">
            <Array as="points">
              <mxPoint x="220" y="880" />
            </Array>
          </mxGeometry>
        </mxCell>
        <mxCell id="Hwy9qkU3soCEkyCqni0h-29" value="由对话框中的参数生成基准面特征对象存入数据模型并可视化到历史树" style="rounded=0;whiteSpace=wrap;html=1;" vertex="1" parent="1">
          <mxGeometry x="170" y="700" width="120" height="70" as="geometry" />
        </mxCell>
        <mxCell id="Hwy9qkU3soCEkyCqni0h-32" value="结束" style="rounded=1;whiteSpace=wrap;html=1;" vertex="1" parent="1">
          <mxGeometry x="30" y="850" width="120" height="60" as="geometry" />
        </mxCell>
        <mxCell id="Hwy9qkU3soCEkyCqni0h-35" style="edgeStyle=orthogonalEdgeStyle;rounded=0;orthogonalLoop=1;jettySize=auto;html=1;" edge="1" parent="1" source="Hwy9qkU3soCEkyCqni0h-34">
          <mxGeometry relative="1" as="geometry">
            <mxPoint x="502" y="300" as="targetPoint" />
          </mxGeometry>
        </mxCell>
        <mxCell id="Hwy9qkU3soCEkyCqni0h-34" value="开始" style="rounded=1;whiteSpace=wrap;html=1;" vertex="1" parent="1">
          <mxGeometry x="442" y="190" width="120" height="60" as="geometry" />
        </mxCell>
        <mxCell id="Hwy9qkU3soCEkyCqni0h-37" style="edgeStyle=orthogonalEdgeStyle;rounded=0;orthogonalLoop=1;jettySize=auto;html=1;entryX=0.5;entryY=0;entryDx=0;entryDy=0;" edge="1" parent="1" source="Hwy9qkU3soCEkyCqni0h-36" target="Hwy9qkU3soCEkyCqni0h-38">
          <mxGeometry relative="1" as="geometry">
            <mxPoint x="502" y="400" as="targetPoint" />
          </mxGeometry>
        </mxCell>
        <mxCell id="Hwy9qkU3soCEkyCqni0h-36" value="工具栏点击拉伸特征命令" style="rounded=0;whiteSpace=wrap;html=1;" vertex="1" parent="1">
          <mxGeometry x="442" y="300" width="120" height="60" as="geometry" />
        </mxCell>
        <mxCell id="Hwy9qkU3soCEkyCqni0h-39" value="否" style="edgeStyle=orthogonalEdgeStyle;rounded=0;orthogonalLoop=1;jettySize=auto;html=1;" edge="1" parent="1" source="Hwy9qkU3soCEkyCqni0h-38">
          <mxGeometry relative="1" as="geometry">
            <mxPoint x="598" y="450" as="targetPoint" />
          </mxGeometry>
        </mxCell>
        <mxCell id="Hwy9qkU3soCEkyCqni0h-41" value="是" style="edgeStyle=orthogonalEdgeStyle;rounded=0;orthogonalLoop=1;jettySize=auto;html=1;entryX=0.5;entryY=0;entryDx=0;entryDy=0;" edge="1" parent="1" source="Hwy9qkU3soCEkyCqni0h-38" target="Hwy9qkU3soCEkyCqni0h-42">
          <mxGeometry relative="1" as="geometry">
            <mxPoint x="501.9999999999998" y="520" as="targetPoint" />
          </mxGeometry>
        </mxCell>
        <mxCell id="Hwy9qkU3soCEkyCqni0h-38" value="是否选中&lt;br&gt;草图特征" style="rhombus;whiteSpace=wrap;html=1;" vertex="1" parent="1">
          <mxGeometry x="457.5" y="410" width="89" height="80" as="geometry" />
        </mxCell>
        <mxCell id="Hwy9qkU3soCEkyCqni0h-44" style="edgeStyle=orthogonalEdgeStyle;rounded=0;orthogonalLoop=1;jettySize=auto;html=1;entryX=1;entryY=0.5;entryDx=0;entryDy=0;" edge="1" parent="1" source="Hwy9qkU3soCEkyCqni0h-40" target="Hwy9qkU3soCEkyCqni0h-42">
          <mxGeometry relative="1" as="geometry">
            <Array as="points">
              <mxPoint x="658" y="580" />
            </Array>
          </mxGeometry>
        </mxCell>
        <mxCell id="Hwy9qkU3soCEkyCqni0h-40" value="弹出可用草图对话框供用户选择" style="rounded=0;whiteSpace=wrap;html=1;" vertex="1" parent="1">
          <mxGeometry x="598" y="420" width="120" height="60" as="geometry" />
        </mxCell>
        <mxCell id="Hwy9qkU3soCEkyCqni0h-45" style="edgeStyle=orthogonalEdgeStyle;rounded=0;orthogonalLoop=1;jettySize=auto;html=1;" edge="1" parent="1" source="Hwy9qkU3soCEkyCqni0h-42">
          <mxGeometry relative="1" as="geometry">
            <mxPoint x="502" y="670" as="targetPoint" />
          </mxGeometry>
        </mxCell>
        <mxCell id="Hwy9qkU3soCEkyCqni0h-42" value="由草图特征和默认拉伸向量生成临时显示实体" style="rounded=0;whiteSpace=wrap;html=1;" vertex="1" parent="1">
          <mxGeometry x="442" y="550" width="120" height="60" as="geometry" />
        </mxCell>
        <mxCell id="Hwy9qkU3soCEkyCqni0h-48" value="否" style="edgeStyle=orthogonalEdgeStyle;rounded=0;orthogonalLoop=1;jettySize=auto;html=1;" edge="1" parent="1" source="Hwy9qkU3soCEkyCqni0h-46">
          <mxGeometry relative="1" as="geometry">
            <mxPoint x="618" y="715" as="targetPoint" />
          </mxGeometry>
        </mxCell>
        <mxCell id="Hwy9qkU3soCEkyCqni0h-58" value="是" style="edgeStyle=orthogonalEdgeStyle;rounded=0;orthogonalLoop=1;jettySize=auto;html=1;exitX=0.5;exitY=1;exitDx=0;exitDy=0;entryX=0.5;entryY=0;entryDx=0;entryDy=0;" edge="1" parent="1" source="Hwy9qkU3soCEkyCqni0h-46" target="Hwy9qkU3soCEkyCqni0h-59">
          <mxGeometry relative="1" as="geometry">
            <mxPoint x="568" y="810" as="targetPoint" />
          </mxGeometry>
        </mxCell>
        <mxCell id="Hwy9qkU3soCEkyCqni0h-46" value="实体是否&lt;br&gt;满足用户要求" style="rhombus;whiteSpace=wrap;html=1;" vertex="1" parent="1">
          <mxGeometry x="454" y="670" width="94" height="90" as="geometry" />
        </mxCell>
        <mxCell id="Hwy9qkU3soCEkyCqni0h-50" style="edgeStyle=orthogonalEdgeStyle;rounded=0;orthogonalLoop=1;jettySize=auto;html=1;entryX=0.5;entryY=0;entryDx=0;entryDy=0;" edge="1" parent="1" source="Hwy9qkU3soCEkyCqni0h-49" target="Hwy9qkU3soCEkyCqni0h-46">
          <mxGeometry relative="1" as="geometry">
            <Array as="points">
              <mxPoint x="678" y="650" />
              <mxPoint x="501" y="650" />
            </Array>
          </mxGeometry>
        </mxCell>
        <mxCell id="Hwy9qkU3soCEkyCqni0h-49" value="调整拉伸参数" style="rounded=0;whiteSpace=wrap;html=1;" vertex="1" parent="1">
          <mxGeometry x="618" y="690" width="120" height="55" as="geometry" />
        </mxCell>
        <mxCell id="Hwy9qkU3soCEkyCqni0h-63" value="是" style="edgeStyle=orthogonalEdgeStyle;rounded=0;orthogonalLoop=1;jettySize=auto;html=1;entryX=0.5;entryY=0;entryDx=0;entryDy=0;" edge="1" parent="1" source="Hwy9qkU3soCEkyCqni0h-52">
          <mxGeometry relative="1" as="geometry">
            <mxPoint x="502" y="1050" as="targetPoint" />
            <Array as="points">
              <mxPoint x="501" y="1020" />
              <mxPoint x="501" y="1020" />
            </Array>
          </mxGeometry>
        </mxCell>
        <mxCell id="Hwy9qkU3soCEkyCqni0h-67" style="edgeStyle=orthogonalEdgeStyle;rounded=0;orthogonalLoop=1;jettySize=auto;html=1;" edge="1" parent="1" source="Hwy9qkU3soCEkyCqni0h-52">
          <mxGeometry relative="1" as="geometry">
            <mxPoint x="608" y="955" as="targetPoint" />
          </mxGeometry>
        </mxCell>
        <mxCell id="Hwy9qkU3soCEkyCqni0h-52" value="该特征是否是&lt;br&gt;第一个基体特征" style="rhombus;whiteSpace=wrap;html=1;" vertex="1" parent="1">
          <mxGeometry x="432.5" y="910" width="135.5" height="90" as="geometry" />
        </mxCell>
        <mxCell id="Hwy9qkU3soCEkyCqni0h-56" style="edgeStyle=orthogonalEdgeStyle;rounded=0;orthogonalLoop=1;jettySize=auto;html=1;" edge="1" parent="1">
          <mxGeometry relative="1" as="geometry">
            <mxPoint x="668" y="990" as="targetPoint" />
            <mxPoint x="580.5" y="1085" as="sourcePoint" />
          </mxGeometry>
        </mxCell>
        <mxCell id="Hwy9qkU3soCEkyCqni0h-55" value="拉伸实体与原特征进行布尔加操作" style="rounded=0;whiteSpace=wrap;html=1;" vertex="1" parent="1">
          <mxGeometry x="421.75" y="1050" width="157" height="70" as="geometry" />
        </mxCell>
        <mxCell id="Hwy9qkU3soCEkyCqni0h-61" value="是" style="edgeStyle=orthogonalEdgeStyle;rounded=0;orthogonalLoop=1;jettySize=auto;html=1;entryX=0.5;entryY=0;entryDx=0;entryDy=0;" edge="1" parent="1" source="Hwy9qkU3soCEkyCqni0h-59" target="Hwy9qkU3soCEkyCqni0h-52">
          <mxGeometry relative="1" as="geometry" />
        </mxCell>
        <mxCell id="Hwy9qkU3soCEkyCqni0h-62" value="否" style="edgeStyle=orthogonalEdgeStyle;rounded=0;orthogonalLoop=1;jettySize=auto;html=1;exitX=1;exitY=0.5;exitDx=0;exitDy=0;entryX=0.5;entryY=0;entryDx=0;entryDy=0;" edge="1" parent="1" source="Hwy9qkU3soCEkyCqni0h-59">
          <mxGeometry relative="1" as="geometry">
            <mxPoint x="848" y="925" as="targetPoint" />
          </mxGeometry>
        </mxCell>
        <mxCell id="Hwy9qkU3soCEkyCqni0h-59" value="是否确认生成" style="rhombus;whiteSpace=wrap;html=1;" vertex="1" parent="1">
          <mxGeometry x="461" y="790" width="80" height="80" as="geometry" />
        </mxCell>
        <mxCell id="Hwy9qkU3soCEkyCqni0h-65" value="结束" style="rounded=1;whiteSpace=wrap;html=1;" vertex="1" parent="1">
          <mxGeometry x="790" y="925" width="120" height="60" as="geometry" />
        </mxCell>
        <mxCell id="Hwy9qkU3soCEkyCqni0h-69" value="" style="edgeStyle=orthogonalEdgeStyle;rounded=0;orthogonalLoop=1;jettySize=auto;html=1;" edge="1" parent="1" source="Hwy9qkU3soCEkyCqni0h-68">
          <mxGeometry relative="1" as="geometry">
            <mxPoint x="788" y="955" as="targetPoint" />
          </mxGeometry>
        </mxCell>
        <mxCell id="Hwy9qkU3soCEkyCqni0h-68" value="擦除临时显示，并在历史树和场景中显示结果" style="rounded=0;whiteSpace=wrap;html=1;" vertex="1" parent="1">
          <mxGeometry x="608" y="925" width="120" height="60" as="geometry" />
        </mxCell>
        <mxCell id="Hwy9qkU3soCEkyCqni0h-71" style="edgeStyle=orthogonalEdgeStyle;rounded=0;orthogonalLoop=1;jettySize=auto;html=1;" edge="1" parent="1" source="Hwy9qkU3soCEkyCqni0h-70">
          <mxGeometry relative="1" as="geometry">
            <mxPoint x="1110" y="310" as="targetPoint" />
          </mxGeometry>
        </mxCell>
        <mxCell id="Hwy9qkU3soCEkyCqni0h-70" value="开始" style="rounded=1;whiteSpace=wrap;html=1;" vertex="1" parent="1">
          <mxGeometry x="1050" y="200" width="120" height="60" as="geometry" />
        </mxCell>
        <mxCell id="Hwy9qkU3soCEkyCqni0h-73" style="edgeStyle=orthogonalEdgeStyle;rounded=0;orthogonalLoop=1;jettySize=auto;html=1;" edge="1" parent="1" source="Hwy9qkU3soCEkyCqni0h-72">
          <mxGeometry relative="1" as="geometry">
            <mxPoint x="1110" y="420" as="targetPoint" />
          </mxGeometry>
        </mxCell>
        <mxCell id="Hwy9qkU3soCEkyCqni0h-72" value="选择当前显示实体要修饰的拓扑元素" style="rounded=0;whiteSpace=wrap;html=1;" vertex="1" parent="1">
          <mxGeometry x="1050" y="310" width="120" height="60" as="geometry" />
        </mxCell>
        <mxCell id="Hwy9qkU3soCEkyCqni0h-76" style="edgeStyle=orthogonalEdgeStyle;rounded=0;orthogonalLoop=1;jettySize=auto;html=1;" edge="1" parent="1" source="Hwy9qkU3soCEkyCqni0h-74">
          <mxGeometry relative="1" as="geometry">
            <mxPoint x="1110" y="550" as="targetPoint" />
          </mxGeometry>
        </mxCell>
        <mxCell id="Hwy9qkU3soCEkyCqni0h-74" value="点击修饰命令，由默认修饰参数生成临时显示" style="rounded=0;whiteSpace=wrap;html=1;" vertex="1" parent="1">
          <mxGeometry x="1050" y="420" width="120" height="70" as="geometry" />
        </mxCell>
        <mxCell id="Hwy9qkU3soCEkyCqni0h-78" value="否" style="edgeStyle=orthogonalEdgeStyle;rounded=0;orthogonalLoop=1;jettySize=auto;html=1;" edge="1" parent="1" source="Hwy9qkU3soCEkyCqni0h-77">
          <mxGeometry relative="1" as="geometry">
            <mxPoint x="1230" y="590" as="targetPoint" />
          </mxGeometry>
        </mxCell>
        <mxCell id="Hwy9qkU3soCEkyCqni0h-81" value="是" style="edgeStyle=orthogonalEdgeStyle;rounded=0;orthogonalLoop=1;jettySize=auto;html=1;" edge="1" parent="1" source="Hwy9qkU3soCEkyCqni0h-77">
          <mxGeometry relative="1" as="geometry">
            <mxPoint x="1110" y="670" as="targetPoint" />
          </mxGeometry>
        </mxCell>
        <mxCell id="Hwy9qkU3soCEkyCqni0h-77" value="显示是否&lt;br&gt;符合用户需求" style="rhombus;whiteSpace=wrap;html=1;" vertex="1" parent="1">
          <mxGeometry x="1055" y="550" width="110" height="80" as="geometry" />
        </mxCell>
        <mxCell id="Hwy9qkU3soCEkyCqni0h-80" style="edgeStyle=orthogonalEdgeStyle;rounded=0;orthogonalLoop=1;jettySize=auto;html=1;exitX=0.5;exitY=0;exitDx=0;exitDy=0;entryX=0.5;entryY=0;entryDx=0;entryDy=0;" edge="1" parent="1" source="Hwy9qkU3soCEkyCqni0h-79" target="Hwy9qkU3soCEkyCqni0h-77">
          <mxGeometry relative="1" as="geometry" />
        </mxCell>
        <mxCell id="Hwy9qkU3soCEkyCqni0h-79" value="调整参数" style="rounded=0;whiteSpace=wrap;html=1;" vertex="1" parent="1">
          <mxGeometry x="1230" y="560" width="120" height="60" as="geometry" />
        </mxCell>
        <mxCell id="Hwy9qkU3soCEkyCqni0h-91" style="edgeStyle=orthogonalEdgeStyle;rounded=0;orthogonalLoop=1;jettySize=auto;html=1;entryX=0;entryY=0.5;entryDx=0;entryDy=0;" edge="1" parent="1" source="Hwy9qkU3soCEkyCqni0h-82" target="Hwy9qkU3soCEkyCqni0h-85">
          <mxGeometry relative="1" as="geometry" />
        </mxCell>
        <mxCell id="Hwy9qkU3soCEkyCqni0h-82" value="擦除临时显示，并在历史树和场景中显示结果" style="rounded=0;whiteSpace=wrap;html=1;" vertex="1" parent="1">
          <mxGeometry x="1055" y="810" width="120" height="60" as="geometry" />
        </mxCell>
        <mxCell id="Hwy9qkU3soCEkyCqni0h-85" value="结束" style="rounded=1;whiteSpace=wrap;html=1;" vertex="1" parent="1">
          <mxGeometry x="1241" y="810" width="120" height="60" as="geometry" />
        </mxCell>
        <mxCell id="Hwy9qkU3soCEkyCqni0h-92" style="edgeStyle=orthogonalEdgeStyle;rounded=0;orthogonalLoop=1;jettySize=auto;html=1;" edge="1" parent="1" source="Hwy9qkU3soCEkyCqni0h-86">
          <mxGeometry relative="1" as="geometry">
            <mxPoint x="1560" y="330" as="targetPoint" />
          </mxGeometry>
        </mxCell>
        <mxCell id="Hwy9qkU3soCEkyCqni0h-86" value="开始" style="rounded=1;whiteSpace=wrap;html=1;" vertex="1" parent="1">
          <mxGeometry x="1500" y="205" width="120" height="60" as="geometry" />
        </mxCell>
        <mxCell id="Hwy9qkU3soCEkyCqni0h-89" value="是" style="edgeStyle=orthogonalEdgeStyle;rounded=0;orthogonalLoop=1;jettySize=auto;html=1;entryX=0.5;entryY=0;entryDx=0;entryDy=0;" edge="1" parent="1" source="Hwy9qkU3soCEkyCqni0h-88" target="Hwy9qkU3soCEkyCqni0h-82">
          <mxGeometry relative="1" as="geometry" />
        </mxCell>
        <mxCell id="Hwy9qkU3soCEkyCqni0h-90" value="否" style="edgeStyle=orthogonalEdgeStyle;rounded=0;orthogonalLoop=1;jettySize=auto;html=1;" edge="1" parent="1" source="Hwy9qkU3soCEkyCqni0h-88" target="Hwy9qkU3soCEkyCqni0h-85">
          <mxGeometry relative="1" as="geometry" />
        </mxCell>
        <mxCell id="Hwy9qkU3soCEkyCqni0h-88" value="是否确认生成" style="rhombus;whiteSpace=wrap;html=1;" vertex="1" parent="1">
          <mxGeometry x="1070" y="670" width="80" height="80" as="geometry" />
        </mxCell>
        <mxCell id="Hwy9qkU3soCEkyCqni0h-94" style="edgeStyle=orthogonalEdgeStyle;rounded=0;orthogonalLoop=1;jettySize=auto;html=1;entryX=0.5;entryY=0;entryDx=0;entryDy=0;" edge="1" parent="1" source="Hwy9qkU3soCEkyCqni0h-93" target="Hwy9qkU3soCEkyCqni0h-95">
          <mxGeometry relative="1" as="geometry">
            <mxPoint x="1560" y="440" as="targetPoint" />
          </mxGeometry>
        </mxCell>
        <mxCell id="Hwy9qkU3soCEkyCqni0h-93" value="工具栏点击转换特征命令" style="rounded=0;whiteSpace=wrap;html=1;" vertex="1" parent="1">
          <mxGeometry x="1500" y="330" width="120" height="60" as="geometry" />
        </mxCell>
        <mxCell id="Hwy9qkU3soCEkyCqni0h-96" value="否" style="edgeStyle=orthogonalEdgeStyle;rounded=0;orthogonalLoop=1;jettySize=auto;html=1;exitX=1;exitY=0.5;exitDx=0;exitDy=0;" edge="1" parent="1" source="Hwy9qkU3soCEkyCqni0h-95">
          <mxGeometry relative="1" as="geometry">
            <mxPoint x="1670" y="490" as="targetPoint" />
          </mxGeometry>
        </mxCell>
        <mxCell id="Hwy9qkU3soCEkyCqni0h-99" value="是" style="edgeStyle=orthogonalEdgeStyle;rounded=0;orthogonalLoop=1;jettySize=auto;html=1;" edge="1" parent="1" source="Hwy9qkU3soCEkyCqni0h-95">
          <mxGeometry relative="1" as="geometry">
            <mxPoint x="1560" y="590" as="targetPoint" />
          </mxGeometry>
        </mxCell>
        <mxCell id="Hwy9qkU3soCEkyCqni0h-95" value="是否选中要&lt;br&gt;变换的特征" style="rhombus;whiteSpace=wrap;html=1;" vertex="1" parent="1">
          <mxGeometry x="1500" y="450" width="120" height="80" as="geometry" />
        </mxCell>
        <mxCell id="Hwy9qkU3soCEkyCqni0h-101" style="edgeStyle=orthogonalEdgeStyle;rounded=0;orthogonalLoop=1;jettySize=auto;html=1;entryX=1;entryY=0.5;entryDx=0;entryDy=0;" edge="1" parent="1" source="Hwy9qkU3soCEkyCqni0h-97" target="Hwy9qkU3soCEkyCqni0h-100">
          <mxGeometry relative="1" as="geometry">
            <Array as="points">
              <mxPoint x="1740" y="620" />
            </Array>
          </mxGeometry>
        </mxCell>
        <mxCell id="Hwy9qkU3soCEkyCqni0h-97" value="弹出特征对话框供用户选择" style="rounded=0;whiteSpace=wrap;html=1;" vertex="1" parent="1">
          <mxGeometry x="1670" y="460" width="120" height="60" as="geometry" />
        </mxCell>
        <mxCell id="Hwy9qkU3soCEkyCqni0h-102" style="edgeStyle=orthogonalEdgeStyle;rounded=0;orthogonalLoop=1;jettySize=auto;html=1;" edge="1" parent="1" source="Hwy9qkU3soCEkyCqni0h-100">
          <mxGeometry relative="1" as="geometry">
            <mxPoint x="1560" y="700" as="targetPoint" />
          </mxGeometry>
        </mxCell>
        <mxCell id="Hwy9qkU3soCEkyCqni0h-100" value="由选择的特征和默认参数生成临时显示实体并显示" style="rounded=0;whiteSpace=wrap;html=1;" vertex="1" parent="1">
          <mxGeometry x="1500" y="590" width="120" height="60" as="geometry" />
        </mxCell>
        <mxCell id="Hwy9qkU3soCEkyCqni0h-107" value="是" style="edgeStyle=orthogonalEdgeStyle;rounded=0;orthogonalLoop=1;jettySize=auto;html=1;" edge="1" parent="1" source="Hwy9qkU3soCEkyCqni0h-103">
          <mxGeometry relative="1" as="geometry">
            <mxPoint x="1560" y="820" as="targetPoint" />
          </mxGeometry>
        </mxCell>
        <mxCell id="Hwy9qkU3soCEkyCqni0h-113" value="否" style="edgeStyle=orthogonalEdgeStyle;rounded=0;orthogonalLoop=1;jettySize=auto;html=1;entryX=0;entryY=0.5;entryDx=0;entryDy=0;" edge="1" parent="1" source="Hwy9qkU3soCEkyCqni0h-103" target="Hwy9qkU3soCEkyCqni0h-105">
          <mxGeometry relative="1" as="geometry">
            <Array as="points">
              <mxPoint x="1630" y="740" />
              <mxPoint x="1630" y="740" />
            </Array>
          </mxGeometry>
        </mxCell>
        <mxCell id="Hwy9qkU3soCEkyCqni0h-103" value="是否符合&lt;br&gt;用户要求" style="rhombus;whiteSpace=wrap;html=1;" vertex="1" parent="1">
          <mxGeometry x="1520" y="700" width="80" height="80" as="geometry" />
        </mxCell>
        <mxCell id="Hwy9qkU3soCEkyCqni0h-106" style="edgeStyle=orthogonalEdgeStyle;rounded=0;orthogonalLoop=1;jettySize=auto;html=1;entryX=0.5;entryY=0;entryDx=0;entryDy=0;" edge="1" parent="1" source="Hwy9qkU3soCEkyCqni0h-105" target="Hwy9qkU3soCEkyCqni0h-103">
          <mxGeometry relative="1" as="geometry">
            <Array as="points">
              <mxPoint x="1720" y="680" />
              <mxPoint x="1560" y="680" />
            </Array>
          </mxGeometry>
        </mxCell>
        <mxCell id="Hwy9qkU3soCEkyCqni0h-105" value="调整参数改变临时显示实体" style="rounded=0;whiteSpace=wrap;html=1;" vertex="1" parent="1">
          <mxGeometry x="1670" y="715" width="120" height="50" as="geometry" />
        </mxCell>
        <mxCell id="Hwy9qkU3soCEkyCqni0h-109" value="否" style="edgeStyle=orthogonalEdgeStyle;rounded=0;orthogonalLoop=1;jettySize=auto;html=1;" edge="1" parent="1" source="Hwy9qkU3soCEkyCqni0h-108">
          <mxGeometry relative="1" as="geometry">
            <mxPoint x="1560" y="940" as="targetPoint" />
          </mxGeometry>
        </mxCell>
        <mxCell id="Hwy9qkU3soCEkyCqni0h-111" value="是" style="edgeStyle=orthogonalEdgeStyle;rounded=0;orthogonalLoop=1;jettySize=auto;html=1;" edge="1" parent="1" source="Hwy9qkU3soCEkyCqni0h-108">
          <mxGeometry relative="1" as="geometry">
            <mxPoint x="1660" y="860" as="targetPoint" />
          </mxGeometry>
        </mxCell>
        <mxCell id="Hwy9qkU3soCEkyCqni0h-108" value="是否确认&lt;br&gt;生成特征" style="rhombus;whiteSpace=wrap;html=1;" vertex="1" parent="1">
          <mxGeometry x="1520" y="820" width="80" height="80" as="geometry" />
        </mxCell>
        <mxCell id="Hwy9qkU3soCEkyCqni0h-110" value="结束" style="rounded=1;whiteSpace=wrap;html=1;" vertex="1" parent="1">
          <mxGeometry x="1500" y="940" width="120" height="60" as="geometry" />
        </mxCell>
        <mxCell id="Hwy9qkU3soCEkyCqni0h-114" style="edgeStyle=orthogonalEdgeStyle;rounded=0;orthogonalLoop=1;jettySize=auto;html=1;entryX=1;entryY=0.75;entryDx=0;entryDy=0;" edge="1" parent="1" source="Hwy9qkU3soCEkyCqni0h-112" target="Hwy9qkU3soCEkyCqni0h-110">
          <mxGeometry relative="1" as="geometry">
            <Array as="points">
              <mxPoint x="1720" y="985" />
            </Array>
          </mxGeometry>
        </mxCell>
        <mxCell id="Hwy9qkU3soCEkyCqni0h-112" value="擦除临时显示，并在历史树和场景中显示结果" style="rounded=0;whiteSpace=wrap;html=1;" vertex="1" parent="1">
          <mxGeometry x="1660" y="830" width="120" height="60" as="geometry" />
        </mxCell>
      </root>
    </mxGraphModel>
  </diagram>
</mxfile>
